<svg data-v-423bf9ae="" xmlns="http://www.w3.org/2000/svg" viewBox="0 0 531 90" class="iconLeftSlogan"><!----><!----><!----><g data-v-423bf9ae="" id="73232b4a-5b55-400d-bf6e-757bf6f26b10" fill="white" transform="matrix(5.163511276245117,0,0,5.163511276245117,102.5555191040039,-17.917383193969727)"><path d="M0.92 4.26L0.92 14.92L2.74 14.92L2.74 7.85L6.17 14.92L8.13 14.92L8.13 4.26L6.33 4.26L6.33 11.48L2.93 4.26ZM15.72 14.92L17.81 14.92L14.70 4.26L12.38 4.26L9.27 14.92L11.24 14.92L11.93 12.28L15.05 12.28ZM13.51 6.17L14.60 10.49L12.39 10.49ZM21.99 5.81C22.90 5.81 23.42 6.17 23.52 7.08L25.45 7.08C25.27 4.86 23.91 4.09 21.95 4.09C19.82 4.09 18.68 5.14 18.68 7.07C18.68 9.23 20.02 9.84 21.59 10.26C23.14 10.68 23.63 11.07 23.63 11.93C23.63 12.96 23.20 13.37 22.06 13.37C20.89 13.37 20.44 12.87 20.40 12.03L18.49 12.03C18.49 13.71 19.46 15.09 21.98 15.09C24.56 15.09 25.61 13.97 25.61 11.90C25.61 9.66 23.98 8.97 22.26 8.53C21.04 8.20 20.61 7.85 20.61 7.00C20.61 6.19 21 5.81 21.99 5.81ZM32.62 14.92L34.71 14.92L31.60 4.26L29.27 4.26L26.17 14.92L28.14 14.92L28.83 12.28L31.95 12.28ZM30.41 6.17L31.50 10.49L29.29 10.49ZM39.34 14.92L41.26 14.92L41.26 11.02L42.60 11.02C44.98 11.02 46.03 10.07 46.03 7.88L46.03 7.39C46.03 5.17 44.87 4.26 42.53 4.26L39.34 4.26ZM41.26 6.02L42.50 6.02C43.61 6.02 44.10 6.31 44.10 7.53L44.10 7.81C44.10 8.93 43.76 9.24 42.59 9.24L41.26 9.24ZM49.20 6.51L47.31 6.51L47.31 14.92L49.20 14.92ZM49.20 3.47L47.31 3.47L47.31 5.28L49.20 5.28ZM55.33 11.93L55.33 12.08C55.33 13.01 54.95 13.44 53.98 13.44C53.00 13.44 52.64 12.96 52.64 11.80L52.64 9.60C52.64 8.43 53.03 8.01 54.00 8.01C54.94 8.01 55.30 8.41 55.30 9.32L55.30 9.48L57.13 9.48L57.13 9.31C57.13 7.32 56.14 6.34 53.97 6.34C51.81 6.34 50.75 7.36 50.75 9.63L50.75 11.79C50.75 14.07 51.79 15.09 53.94 15.09C56.17 15.09 57.15 14.07 57.15 12.05L57.15 11.93ZM61.52 13.38C60.73 13.38 60.44 13.08 60.44 12.01L60.44 8.55L62.12 8.55L62.12 6.92L60.44 6.92L60.44 4.97L58.51 4.97L58.51 11.96C58.51 14.07 59.12 15.09 61.07 15.09C61.50 15.09 61.94 15.04 62.12 14.99L62.12 13.31C61.95 13.36 61.73 13.38 61.52 13.38ZM68.17 14.92L69.80 14.92L69.80 6.51L67.91 6.51L67.91 12.03C67.91 13.01 67.45 13.44 66.65 13.44C65.72 13.44 65.44 12.96 65.44 11.87L65.44 6.51L63.55 6.51L63.55 12.07C63.55 14.10 64.26 15.09 66.00 15.09C66.99 15.09 67.61 14.84 68.08 14.35ZM71.54 6.51L71.54 14.92L73.43 14.92L73.43 10.15C73.43 8.79 74.20 8.30 75.11 8.30C75.32 8.30 75.52 8.32 75.68 8.34L75.68 6.40C75.57 6.38 75.43 6.37 75.29 6.37C74.42 6.37 73.70 6.75 73.29 7.27L73.18 6.51ZM81.09 12.40C81.05 13.13 80.74 13.54 79.77 13.54C78.81 13.54 78.43 13.02 78.43 11.98L78.43 11.28L82.91 11.28L82.91 9.55C82.91 7.34 81.89 6.34 79.77 6.34C77.62 6.34 76.58 7.49 76.58 9.58L76.58 11.79C76.58 14.11 77.60 15.09 79.79 15.09C81.94 15.09 82.78 14.15 82.84 12.40ZM79.79 7.91C80.75 7.91 81.12 8.43 81.12 9.53L81.12 9.84L78.43 9.84L78.43 9.59C78.43 8.39 78.81 7.91 79.79 7.91Z"></path></g><!----><g data-v-423bf9ae="" id="299a9984-870f-45f6-aa0c-50c58941e20b" transform="matrix(1.230623483657837,0,0,1.230623483657837,-16.927478790283203,-16.18568229675293)" stroke="none" fill="white"><path d="M16.958 42.993a1 1 0 0 1-.953-1.303c.206-.65.43-1.296.671-1.939a1 1 0 0 1 1.873.704c-.229.61-.441 1.225-.638 1.841a1.002 1.002 0 0 1-.953.697zM19.239 68.323a37.78 37.78 0 0 0 1.824 3.666 1 1 0 1 1-1.74.986 39.948 39.948 0 0 1-1.92-3.86 1 1 0 1 1 1.836-.792zM25.874 81.507a38.991 38.991 0 0 1-2.902-3.192 1 1 0 0 1 1.553-1.261 36.885 36.885 0 0 0 2.752 3.028 1 1 0 0 1-1.403 1.425zM16.55 63.718a1.002 1.002 0 0 1-1.211-.73 39.678 39.678 0 0 1-.807-4.236 1 1 0 0 1 1.982-.266c.181 1.347.438 2.7.766 4.021a1 1 0 0 1-.73 1.211zM15.699 47.148a1 1 0 0 1 .85 1.13 37.255 37.255 0 0 0-.35 4.079 1 1 0 0 1-.999.969h-.031a1 1 0 0 1-.97-1.03c.045-1.436.169-2.881.369-4.297a.993.993 0 0 1 1.131-.851zM33.091 86.947a.992.992 0 0 1-.531-.153 40.854 40.854 0 0 1-1.709-1.137 1 1 0 1 1 1.151-1.636c.529.372 1.069.731 1.623 1.08a1 1 0 0 1-.534 1.846zM78.822 22.503a.992.992 0 0 1-.531-.153 42.498 42.498 0 0 0-1.679-1.004 1.001 1.001 0 0 1 .988-1.739c.59.335 1.175.685 1.755 1.05a1 1 0 0 1-.533 1.846zM71.331 18.735a.995.995 0 0 1-.361-.068 42.49 42.49 0 0 0-3.95-1.312 1 1 0 1 1 .535-1.926c1.394.387 2.785.85 4.138 1.375a1 1 0 0 1-.362 1.931zM46.405 16.812a1 1 0 0 1-.432-1.953 44.98 44.98 0 0 1 4.297-.732 1 1 0 0 1 .24 1.985 42.646 42.646 0 0 0-4.105.7zM60.897 16.128a43.034 43.034 0 0 0-4.151-.312 1 1 0 0 1-.975-1.025c.015-.553.505-1.024 1.025-.974 1.448.037 2.911.147 4.349.326a.999.999 0 0 1-.123 1.992.881.881 0 0 1-.125-.007zM38.613 19.335a.995.995 0 0 1-1.314-.52.999.999 0 0 1 .52-1.315 44.403 44.403 0 0 1 1.894-.77 1 1 0 0 1 .711 1.87c-.609.231-1.213.476-1.811.735zM15.099 26.677c0 5.286 4.3 9.586 9.586 9.586s9.586-4.3 9.586-9.586c0-5.286-4.3-9.586-9.586-9.586s-9.586 4.3-9.586 9.586zm2 0c0-4.183 3.403-7.586 7.586-7.586s7.586 3.403 7.586 7.586-3.403 7.586-7.586 7.586-7.586-3.403-7.586-7.586zM85.143 54.65c0-15.425-12.549-27.974-27.974-27.974S29.196 39.226 29.196 54.65 41.745 82.624 57.17 82.624 85.143 70.075 85.143 54.65zm-3.115-7.524c-3.861.097-5.993.746-8.037 1.382-2.167.674-4.214 1.311-8.421 1.311s-6.255-.637-8.422-1.311c-2.215-.689-4.504-1.401-9.016-1.401s-6.801.712-9.016 1.401c-1.991.62-3.903 1.201-7.46 1.292a25.85 25.85 0 0 1 4.326-10.147c2.979-.157 4.65-.782 6.256-1.392 1.76-.668 3.423-1.3 6.976-1.3 3.566 0 5.304.63 7.144 1.296 1.921.696 3.907 1.416 7.824 1.416s5.903-.72 7.824-1.416c1.281-.465 2.501-.902 4.316-1.131a25.96 25.96 0 0 1 5.706 10zm.516 1.989c.389 1.785.6 3.635.6 5.535 0 1.574-.148 3.113-.418 4.61-4.109.054-6.298.73-8.397 1.392-2.138.674-4.156 1.31-8.307 1.31s-6.17-.636-8.308-1.31c-2.188-.689-4.451-1.402-8.909-1.402s-6.721.713-8.909 1.402c-2.017.636-3.952 1.231-7.648 1.297a25.879 25.879 0 0 1-.892-10.145c4.065-.068 6.256-.735 8.356-1.388 2.167-.674 4.215-1.311 8.422-1.311s6.255.637 8.422 1.311c2.215.689 4.504 1.401 9.016 1.401 4.511 0 6.801-.712 9.015-1.401 2.08-.647 4.072-1.254 7.957-1.301zM57.17 80.624c-6.1 0-11.712-2.119-16.149-5.653.268-.093.538-.186.796-.279 1.853-.667 3.603-1.297 7.195-1.297s5.344.63 7.196 1.297c1.933.696 3.932 1.415 7.873 1.415s5.94-.719 7.873-1.415c.856-.308 1.689-.605 2.685-.837-4.617 4.203-10.749 6.769-17.469 6.769zM32.918 63.936c3.593-.127 5.621-.759 7.578-1.375 2.138-.674 4.157-1.31 8.308-1.31s6.17.636 8.308 1.31c2.188.689 4.451 1.402 8.909 1.402s6.72-.713 8.908-1.402c1.964-.619 3.849-1.2 7.356-1.291a25.912 25.912 0 0 1-5.36 10.215c-.004 0-.007-.002-.011-.001-2.543.213-4.116.78-5.639 1.328-1.853.667-3.603 1.297-7.195 1.297s-5.343-.63-7.195-1.297c-1.933-.696-3.932-1.416-7.874-1.416-3.941 0-5.939.719-7.872 1.415-.622.224-1.228.432-1.883.622a26.076 26.076 0 0 1-6.338-9.497zM57.17 28.677c6.692 0 12.8 2.545 17.41 6.716-1.27.27-2.277.63-3.255.985-1.839.667-3.576 1.296-7.143 1.296s-5.304-.63-7.143-1.296c-1.921-.696-3.907-1.416-7.825-1.416-3.92 0-5.835.727-7.686 1.43-1.137.431-2.237.843-3.822 1.085 4.764-5.391 11.721-8.8 19.464-8.8z"></path></g><!----><g data-v-423bf9ae="" id="1bdf66aa-8086-4d41-be36-bc6465dce8ef" fill="white" transform="matrix(1.4110113382339478,0,0,1.4110113382339478,106.12066650390625,51.98545455932617)"><path d="M0.84 11.87L0.84 9.69L0.84 9.69Q0.84 7.78 1.75 6.73L1.75 6.73L1.75 6.73Q2.66 5.68 4.28 5.68L4.28 5.68L4.28 5.68Q5.91 5.68 6.82 6.73L6.82 6.73L6.82 6.73Q7.73 7.78 7.73 9.69L7.73 9.69L7.73 11.87L7.73 11.87Q7.73 13.83 6.82 14.85L6.82 14.85L6.82 14.85Q5.91 15.88 4.28 15.88L4.28 15.88L4.28 15.88Q2.66 15.88 1.75 14.85L1.75 14.85L1.75 14.85Q0.84 13.83 0.84 11.87L0.84 11.87ZM4.28 14.78L4.28 14.78L4.28 14.78Q5.42 14.78 5.99 14.01L5.99 14.01L5.99 14.01Q6.55 13.23 6.55 11.79L6.55 11.79L6.55 9.77L6.55 9.77Q6.55 8.43 5.99 7.60L5.99 7.60L5.99 7.60Q5.42 6.78 4.28 6.78L4.28 6.78L4.28 6.78Q3.15 6.78 2.58 7.60L2.58 7.60L2.58 7.60Q2.02 8.43 2.02 9.77L2.02 9.77L2.02 11.79L2.02 11.79Q2.02 13.23 2.58 14.01L2.58 14.01L2.58 14.01Q3.15 14.78 4.28 14.78ZM17.88 12.07L17.88 15.68L16.79 15.68L16.79 8.74L17.88 8.74L17.88 9.91L18.05 9.91L18.05 9.91Q18.69 8.54 20.29 8.54L20.29 8.54L20.29 8.54Q21.49 8.54 22.20 9.29L22.20 9.29L22.20 9.29Q22.92 10.04 22.92 11.54L22.92 11.54L22.92 15.68L21.83 15.68L21.83 11.76L21.83 11.76Q21.83 10.67 21.34 10.12L21.34 10.12L21.34 10.12Q20.85 9.58 20.01 9.58L20.01 9.58L20.01 9.58Q19.01 9.58 18.45 10.25L18.45 10.25L18.45 10.25Q17.88 10.93 17.88 12.07L17.88 12.07ZM50.40 15.68L50.40 12.24L50.15 12.24L47.08 5.88L48.40 5.88L50.90 11.23L51.07 11.23L53.58 5.88L54.89 5.88L51.83 12.24L51.58 12.24L51.58 15.68L50.40 15.68ZM70.04 12.12L70.04 12.29L70.04 12.29Q70.04 13.16 69.75 13.82L69.75 13.82L69.75 13.82Q69.47 14.49 68.99 14.95L68.99 14.95L68.99 14.95Q68.52 15.40 67.88 15.64L67.88 15.64L67.88 15.64Q67.24 15.88 66.56 15.88L66.56 15.88L66.56 15.88Q65.86 15.88 65.23 15.64L65.23 15.64L65.23 15.64Q64.60 15.40 64.12 14.95L64.12 14.95L64.12 14.95Q63.64 14.49 63.36 13.82L63.36 13.82L63.36 13.82Q63.07 13.16 63.07 12.29L63.07 12.29L63.07 12.12L63.07 12.12Q63.07 11.27 63.36 10.61L63.36 10.61L63.36 10.61Q63.64 9.94 64.13 9.48L64.13 9.48L64.13 9.48Q64.61 9.02 65.24 8.78L65.24 8.78L65.24 8.78Q65.87 8.54 66.56 8.54L66.56 8.54L66.56 8.54Q67.24 8.54 67.87 8.78L67.87 8.78L67.87 8.78Q68.50 9.02 68.98 9.48L68.98 9.48L68.98 9.48Q69.47 9.94 69.75 10.61L69.75 10.61L69.75 10.61Q70.04 11.27 70.04 12.12L70.04 12.12ZM66.56 14.84L66.56 14.84L66.56 14.84Q67.06 14.84 67.49 14.66L67.49 14.66L67.49 14.66Q67.91 14.49 68.24 14.15L68.24 14.15L68.24 14.15Q68.56 13.82 68.74 13.35L68.74 13.35L68.74 13.35Q68.92 12.88 68.92 12.29L68.92 12.29L68.92 12.12L68.92 12.12Q68.92 11.56 68.74 11.09L68.74 11.09L68.74 11.09Q68.56 10.63 68.24 10.29L68.24 10.29L68.24 10.29Q67.91 9.95 67.48 9.77L67.48 9.77L67.48 9.77Q67.05 9.58 66.56 9.58L66.56 9.58L66.56 9.58Q66.07 9.58 65.63 9.77L65.63 9.77L65.63 9.77Q65.20 9.95 64.88 10.29L64.88 10.29L64.88 10.29Q64.55 10.63 64.37 11.09L64.37 11.09L64.37 11.09Q64.19 11.56 64.19 12.12L64.19 12.12L64.19 12.29L64.19 12.29Q64.19 12.88 64.37 13.35L64.37 13.35L64.37 13.35Q64.55 13.82 64.88 14.15L64.88 14.15L64.88 14.15Q65.20 14.49 65.63 14.66L65.63 14.66L65.63 14.66Q66.05 14.84 66.56 14.84ZM84.01 12.35L84.01 8.74L85.11 8.74L85.11 15.68L84.01 15.68L84.01 14.42L83.85 14.42L83.85 14.42Q83.51 15.09 82.96 15.48L82.96 15.48L82.96 15.48Q82.42 15.88 81.58 15.88L81.58 15.88L81.58 15.88Q81.00 15.88 80.52 15.69L80.52 15.69L80.52 15.69Q80.04 15.50 79.70 15.12L79.70 15.12L79.70 15.12Q79.35 14.74 79.16 14.18L79.16 14.18L79.16 14.18Q78.97 13.62 78.97 12.88L78.97 12.88L78.97 8.74L80.07 8.74L80.07 12.74L80.07 12.74Q80.07 13.83 80.51 14.34L80.51 14.34L80.51 14.34Q80.96 14.84 81.89 14.84L81.89 14.84L81.89 14.84Q82.88 14.84 83.45 14.16L83.45 14.16L83.45 14.16Q84.01 13.48 84.01 12.35L84.01 12.35ZM94.23 9.74L94.23 8.74L96.75 8.74L96.75 9.66L96.92 9.66L96.92 9.66Q97.19 9.09 97.68 8.81L97.68 8.81L97.68 8.81Q98.17 8.54 98.80 8.54L98.80 8.54L98.80 8.54Q99.85 8.54 100.49 9.23L100.49 9.23L100.49 9.23Q101.14 9.91 101.18 11.23L101.18 11.23L100.03 11.40L100.03 11.40Q100.03 10.43 99.57 10.00L99.57 10.00L99.57 10.00Q99.11 9.58 98.43 9.58L98.43 9.58L98.43 9.58Q98 9.58 97.69 9.74L97.69 9.74L97.69 9.74Q97.37 9.91 97.16 10.21L97.16 10.21L97.16 10.21Q96.95 10.50 96.85 10.89L96.85 10.89L96.85 10.89Q96.75 11.28 96.75 11.73L96.75 11.73L96.75 14.67L98.52 14.67L98.52 15.68L94.07 15.68L94.07 14.67L95.66 14.67L95.66 9.74L94.23 9.74ZM125.34 15.68L125.34 14.59L126.18 14.59L126.18 6.97L125.34 6.97L125.34 5.88L129.30 5.88L129.30 5.88Q130.00 5.88 130.54 6.08L130.54 6.08L130.54 6.08Q131.08 6.27 131.45 6.61L131.45 6.61L131.45 6.61Q131.82 6.94 132.01 7.41L132.01 7.41L132.01 7.41Q132.20 7.88 132.20 8.43L132.20 8.43L132.20 8.60L132.20 8.60Q132.20 9.00 132.08 9.34L132.08 9.34L132.08 9.34Q131.95 9.67 131.73 9.94L131.73 9.94L131.73 9.94Q131.50 10.21 131.20 10.39L131.20 10.39L131.20 10.39Q130.90 10.58 130.55 10.68L130.55 10.68L130.55 10.85L130.55 10.85Q131.25 11.05 131.73 11.60L131.73 11.60L131.73 11.60Q132.20 12.15 132.20 12.95L132.20 12.95L132.20 13.12L132.20 13.12Q132.20 13.66 132.01 14.13L132.01 14.13L132.01 14.13Q131.82 14.60 131.45 14.95L131.45 14.95L131.45 14.95Q131.08 15.29 130.54 15.48L130.54 15.48L130.54 15.48Q130.00 15.68 129.30 15.68L129.30 15.68L125.34 15.68ZM127.36 11.31L127.36 14.59L129.22 14.59L129.22 14.59Q130.05 14.59 130.56 14.17L130.56 14.17L130.56 14.17Q131.08 13.76 131.08 13.03L131.08 13.03L131.08 12.95L131.08 12.95Q131.08 12.19 130.59 11.75L130.59 11.75L130.59 11.75Q130.10 11.31 129.26 11.31L129.26 11.31L127.36 11.31ZM127.36 6.97L127.36 10.22L129.26 10.22L129.26 10.22Q130.10 10.22 130.59 9.79L130.59 9.79L130.59 9.79Q131.08 9.35 131.08 8.60L131.08 8.60L131.08 8.51L131.08 8.51Q131.08 7.80 130.56 7.38L130.56 7.38L130.56 7.38Q130.05 6.97 129.22 6.97L129.22 6.97L127.36 6.97ZM143.49 6.66L143.49 6.66L143.49 6.66Q143.49 6.26 143.77 5.97L143.77 5.97L143.77 5.97Q144.06 5.68 144.47 5.68L144.47 5.68L144.47 5.68Q144.87 5.68 145.16 5.97L145.16 5.97L145.16 5.97Q145.45 6.26 145.45 6.66L145.45 6.66L145.45 6.66Q145.45 7.07 145.16 7.36L145.16 7.36L145.16 7.36Q144.87 7.64 144.47 7.64L144.47 7.64L144.47 7.64Q144.06 7.64 143.77 7.36L143.77 7.36L143.77 7.36Q143.49 7.07 143.49 6.66ZM141.50 15.68L141.50 14.67L143.93 14.67L143.93 9.74L141.75 9.74L141.75 8.74L145.03 8.74L145.03 14.67L147.29 14.67L147.29 15.68L141.50 15.68ZM156.51 9.74L156.51 8.74L159.03 8.74L159.03 9.66L159.19 9.66L159.19 9.66Q159.46 9.09 159.95 8.81L159.95 8.81L159.95 8.81Q160.44 8.54 161.07 8.54L161.07 8.54L161.07 8.54Q162.12 8.54 162.76 9.23L162.76 9.23L162.76 9.23Q163.41 9.91 163.45 11.23L163.45 11.23L162.30 11.40L162.30 11.40Q162.30 10.43 161.84 10.00L161.84 10.00L161.84 10.00Q161.38 9.58 160.71 9.58L160.71 9.58L160.71 9.58Q160.27 9.58 159.96 9.74L159.96 9.74L159.96 9.74Q159.64 9.91 159.43 10.21L159.43 10.21L159.43 10.21Q159.22 10.50 159.12 10.89L159.12 10.89L159.12 10.89Q159.03 11.28 159.03 11.73L159.03 11.73L159.03 14.67L160.79 14.67L160.79 15.68L156.34 15.68L156.34 14.67L157.93 14.67L157.93 9.74L156.51 9.74ZM172.23 9.74L172.23 8.74L174.41 8.74L174.41 5.88L175.50 5.88L175.50 8.74L178.19 8.74L178.19 9.74L175.50 9.74L175.50 14.25L175.50 14.25Q175.50 14.67 175.88 14.67L175.88 14.67L177.86 14.67L177.86 15.68L175.49 15.68L175.49 15.68Q175.01 15.68 174.71 15.37L174.71 15.37L174.71 15.37Q174.41 15.06 174.41 14.59L174.41 14.59L174.41 9.74L172.23 9.74ZM189.13 12.07L189.13 15.68L188.03 15.68L188.03 5.88L189.13 5.88L189.13 10.00L189.29 10.00L189.29 10.00Q189.62 9.32 190.20 8.93L190.20 8.93L190.20 8.93Q190.78 8.54 191.62 8.54L191.62 8.54L191.62 8.54Q192.75 8.54 193.46 9.29L193.46 9.29L193.46 9.29Q194.17 10.04 194.17 11.54L194.17 11.54L194.17 15.68L193.07 15.68L193.07 11.76L193.07 11.76Q193.07 10.67 192.58 10.12L192.58 10.12L192.58 10.12Q192.09 9.58 191.25 9.58L191.25 9.58L191.25 9.58Q190.26 9.58 189.69 10.25L189.69 10.25L189.69 10.25Q189.13 10.93 189.13 12.07L189.13 12.07ZM208.98 15.68L208.98 14.62L208.81 14.62L208.81 14.62Q208.64 14.94 208.38 15.18L208.38 15.18L208.38 15.18Q208.12 15.41 207.82 15.57L207.82 15.57L207.82 15.57Q207.52 15.72 207.19 15.80L207.19 15.80L207.19 15.80Q206.85 15.88 206.54 15.88L206.54 15.88L206.54 15.88Q205.84 15.88 205.24 15.64L205.24 15.64L205.24 15.64Q204.64 15.40 204.18 14.95L204.18 14.95L204.18 14.95Q203.73 14.50 203.47 13.84L203.47 13.84L203.47 13.84Q203.21 13.17 203.21 12.32L203.21 12.32L203.21 12.10L203.21 12.10Q203.21 11.26 203.48 10.59L203.48 10.59L203.48 10.59Q203.74 9.93 204.19 9.47L204.19 9.47L204.19 9.47Q204.64 9.02 205.24 8.78L205.24 8.78L205.24 8.78Q205.84 8.54 206.51 8.54L206.51 8.54L206.51 8.54Q207.23 8.54 207.85 8.86L207.85 8.86L207.85 8.86Q208.47 9.17 208.81 9.83L208.81 9.83L208.98 9.83L208.98 5.88L210.07 5.88L210.07 15.68L208.98 15.68ZM206.65 14.84L206.65 14.84L206.65 14.84Q207.14 14.84 207.56 14.66L207.56 14.66L207.56 14.66Q207.98 14.48 208.30 14.14L208.30 14.14L208.30 14.14Q208.61 13.80 208.80 13.33L208.80 13.33L208.80 13.33Q208.98 12.87 208.98 12.29L208.98 12.29L208.98 12.12L208.98 12.12Q208.98 11.56 208.80 11.09L208.80 11.09L208.80 11.09Q208.61 10.63 208.30 10.29L208.30 10.29L208.30 10.29Q207.98 9.95 207.56 9.77L207.56 9.77L207.56 9.77Q207.13 9.58 206.65 9.58L206.65 9.58L206.65 9.58Q206.16 9.58 205.74 9.76L205.74 9.76L205.74 9.76Q205.31 9.94 205.00 10.28L205.00 10.28L205.00 10.28Q204.68 10.61 204.51 11.07L204.51 11.07L204.51 11.07Q204.33 11.54 204.33 12.10L204.33 12.10L204.33 12.32L204.33 12.32Q204.33 12.91 204.51 13.37L204.51 13.37L204.51 13.37Q204.68 13.83 205.00 14.16L205.00 14.16L205.00 14.16Q205.31 14.49 205.73 14.66L205.73 14.66L205.73 14.66Q206.15 14.84 206.65 14.84ZM224.21 14.59L224.21 14.50L224.04 14.50L224.04 14.50Q223.71 15.20 223.11 15.54L223.11 15.54L223.11 15.54Q222.52 15.88 221.86 15.88L221.86 15.88L221.86 15.88Q221.17 15.88 220.58 15.64L220.58 15.64L220.58 15.64Q220.00 15.41 219.56 14.96L219.56 14.96L219.56 14.96Q219.11 14.50 218.86 13.85L218.86 13.85L218.86 13.85Q218.61 13.19 218.61 12.32L218.61 12.32L218.61 12.10L218.61 12.10Q218.61 11.24 218.86 10.58L218.86 10.58L218.86 10.58Q219.11 9.93 219.56 9.47L219.56 9.47L219.56 9.47Q220.00 9.02 220.58 8.78L220.58 8.78L220.58 8.78Q221.17 8.54 221.83 8.54L221.83 8.54L221.83 8.54Q222.54 8.54 223.13 8.86L223.13 8.86L223.13 8.86Q223.71 9.17 224.04 9.83L224.04 9.83L224.21 9.83L224.21 8.74L225.30 8.74L225.30 14.25L225.30 14.25Q225.30 14.67 225.68 14.67L225.68 14.67L226.03 14.67L226.03 15.68L225.29 15.68L225.29 15.68Q224.81 15.68 224.51 15.37L224.51 15.37L224.51 15.37Q224.21 15.06 224.21 14.59L224.21 14.59ZM221.97 14.84L221.97 14.84L221.97 14.84Q222.46 14.84 222.87 14.66L222.87 14.66L222.87 14.66Q223.29 14.48 223.58 14.14L223.58 14.14L223.58 14.14Q223.87 13.80 224.04 13.33L224.04 13.33L224.04 13.33Q224.21 12.87 224.21 12.29L224.21 12.29L224.21 12.12L224.21 12.12Q224.21 11.56 224.04 11.09L224.04 11.09L224.04 11.09Q223.87 10.63 223.57 10.29L223.57 10.29L223.57 10.29Q223.27 9.95 222.86 9.77L222.86 9.77L222.86 9.77Q222.45 9.58 221.97 9.58L221.97 9.58L221.97 9.58Q221.48 9.58 221.07 9.76L221.07 9.76L221.07 9.76Q220.67 9.94 220.37 10.27L220.37 10.27L220.37 10.27Q220.07 10.60 219.90 11.07L219.90 11.07L219.90 11.07Q219.73 11.54 219.73 12.10L219.73 12.10L219.73 12.32L219.73 12.32Q219.73 13.51 220.35 14.17L220.35 14.17L220.35 14.17Q220.98 14.84 221.97 14.84ZM239.78 17.05L239.78 14.42L239.61 14.42L239.61 14.42Q239.27 15.09 238.73 15.48L238.73 15.48L238.73 15.48Q238.18 15.88 237.34 15.88L237.34 15.88L237.34 15.88Q236.77 15.88 236.29 15.69L236.29 15.69L236.29 15.69Q235.80 15.50 235.46 15.12L235.46 15.12L235.46 15.12Q235.12 14.74 234.93 14.18L234.93 14.18L234.93 14.18Q234.74 13.62 234.74 12.88L234.74 12.88L234.74 8.74L235.83 8.74L235.83 12.74L235.83 12.74Q235.83 13.83 236.28 14.34L236.28 14.34L236.28 14.34Q236.73 14.84 237.65 14.84L237.65 14.84L237.65 14.84Q238.64 14.84 239.21 14.16L239.21 14.16L239.21 14.16Q239.78 13.48 239.78 12.35L239.78 12.35L239.78 8.74L240.87 8.74L240.87 17.39L240.87 17.39Q240.87 17.86 240.57 18.17L240.57 18.17L240.57 18.17Q240.27 18.48 239.79 18.48L239.79 18.48L235.83 18.48L235.83 17.47L239.40 17.47L239.40 17.47Q239.78 17.47 239.78 17.05L239.78 17.05Z"></path></g></svg>