<svg data-v-423bf9ae="" xmlns="http://www.w3.org/2000/svg" viewBox="0 0 423.35631480543276 60" class="font"><!----><!----><!----><g data-v-423bf9ae="" id="f5eb6548-ad1a-4adf-bfb4-3f415055d3c8" fill="white" transform="matrix(5.163511276245117,0,0,5.163511276245117,-4.750418186187744,-17.917383193969727)"><path d="M0.92 4.26L0.92 14.92L2.74 14.92L2.74 7.85L6.17 14.92L8.13 14.92L8.13 4.26L6.33 4.26L6.33 11.48L2.93 4.26ZM15.72 14.92L17.81 14.92L14.70 4.26L12.38 4.26L9.27 14.92L11.24 14.92L11.93 12.28L15.05 12.28ZM13.51 6.17L14.60 10.49L12.39 10.49ZM21.99 5.81C22.90 5.81 23.42 6.17 23.52 7.08L25.45 7.08C25.27 4.86 23.91 4.09 21.95 4.09C19.82 4.09 18.68 5.14 18.68 7.07C18.68 9.23 20.02 9.84 21.59 10.26C23.14 10.68 23.63 11.07 23.63 11.93C23.63 12.96 23.20 13.37 22.06 13.37C20.89 13.37 20.44 12.87 20.40 12.03L18.49 12.03C18.49 13.71 19.46 15.09 21.98 15.09C24.56 15.09 25.61 13.97 25.61 11.90C25.61 9.66 23.98 8.97 22.26 8.53C21.04 8.20 20.61 7.85 20.61 7.00C20.61 6.19 21 5.81 21.99 5.81ZM32.62 14.92L34.71 14.92L31.60 4.26L29.27 4.26L26.17 14.92L28.14 14.92L28.83 12.28L31.95 12.28ZM30.41 6.17L31.50 10.49L29.29 10.49ZM39.34 14.92L41.26 14.92L41.26 11.02L42.60 11.02C44.98 11.02 46.03 10.07 46.03 7.88L46.03 7.39C46.03 5.17 44.87 4.26 42.53 4.26L39.34 4.26ZM41.26 6.02L42.50 6.02C43.61 6.02 44.10 6.31 44.10 7.53L44.10 7.81C44.10 8.93 43.76 9.24 42.59 9.24L41.26 9.24ZM49.20 6.51L47.31 6.51L47.31 14.92L49.20 14.92ZM49.20 3.47L47.31 3.47L47.31 5.28L49.20 5.28ZM55.33 11.93L55.33 12.08C55.33 13.01 54.95 13.44 53.98 13.44C53.00 13.44 52.64 12.96 52.64 11.80L52.64 9.60C52.64 8.43 53.03 8.01 54.00 8.01C54.94 8.01 55.30 8.41 55.30 9.32L55.30 9.48L57.13 9.48L57.13 9.31C57.13 7.32 56.14 6.34 53.97 6.34C51.81 6.34 50.75 7.36 50.75 9.63L50.75 11.79C50.75 14.07 51.79 15.09 53.94 15.09C56.17 15.09 57.15 14.07 57.15 12.05L57.15 11.93ZM61.52 13.38C60.73 13.38 60.44 13.08 60.44 12.01L60.44 8.55L62.12 8.55L62.12 6.92L60.44 6.92L60.44 4.97L58.51 4.97L58.51 11.96C58.51 14.07 59.12 15.09 61.07 15.09C61.50 15.09 61.94 15.04 62.12 14.99L62.12 13.31C61.95 13.36 61.73 13.38 61.52 13.38ZM68.17 14.92L69.80 14.92L69.80 6.51L67.91 6.51L67.91 12.03C67.91 13.01 67.45 13.44 66.65 13.44C65.72 13.44 65.44 12.96 65.44 11.87L65.44 6.51L63.55 6.51L63.55 12.07C63.55 14.10 64.26 15.09 66.00 15.09C66.99 15.09 67.61 14.84 68.08 14.35ZM71.54 6.51L71.54 14.92L73.43 14.92L73.43 10.15C73.43 8.79 74.20 8.30 75.11 8.30C75.32 8.30 75.52 8.32 75.68 8.34L75.68 6.40C75.57 6.38 75.43 6.37 75.29 6.37C74.42 6.37 73.70 6.75 73.29 7.27L73.18 6.51ZM81.09 12.40C81.05 13.13 80.74 13.54 79.77 13.54C78.81 13.54 78.43 13.02 78.43 11.98L78.43 11.28L82.91 11.28L82.91 9.55C82.91 7.34 81.89 6.34 79.77 6.34C77.62 6.34 76.58 7.49 76.58 9.58L76.58 11.79C76.58 14.11 77.60 15.09 79.79 15.09C81.94 15.09 82.78 14.15 82.84 12.40ZM79.79 7.91C80.75 7.91 81.12 8.43 81.12 9.53L81.12 9.84L78.43 9.84L78.43 9.59C78.43 8.39 78.81 7.91 79.79 7.91Z"></path></g><!----><!----></svg>